<svg version="1.1" viewBox="0.0 0.0 960.0 293.51443569553805" fill="none" stroke="none" stroke-linecap="square" stroke-miterlimit="10" xmlns:xlink="http://www.w3.org/1999/xlink" xmlns="http://www.w3.org/2000/svg"><clipPath id="p.0"><path d="m0 0l960.0 0l0 293.51443l-960.0 0l0 -293.51443z" clip-rule="nonzero"/></clipPath><g clip-path="url(#p.0)"><path fill="#000000" fill-opacity="0.0" d="m0 0l960.0 0l0 293.51443l-960.0 0z" fill-rule="evenodd"/><path fill="#000000" fill-opacity="0.0" d="m153.79002 48.750656l0 0c0 -15.7248955 12.747543 -28.47244 28.472443 -28.47244l0 0c7.551361 0 14.793442 2.9997654 20.133057 8.339384c5.339615 5.3396187 8.339386 12.581696 8.339386 20.133057l0 0c0 15.724892 -12.747543 28.472443 -28.472443 28.472443l0 0c-15.724899 0 -28.472443 -12.747551 -28.472443 -28.472443z" fill-rule="evenodd"/><path stroke="#000000" stroke-width="2.0" stroke-linejoin="round" stroke-linecap="butt" stroke-dasharray="8.0,6.0" d="m153.79002 48.750656l0 0c0 -15.7248955 12.747543 -28.47244 28.472443 -28.47244l0 0c7.551361 0 14.793442 2.9997654 20.133057 8.339384c5.339615 5.3396187 8.339386 12.581696 8.339386 20.133057l0 0c0 15.724892 -12.747543 28.472443 -28.472443 28.472443l0 0c-15.724899 0 -28.472443 -12.747551 -28.472443 -28.472443z" fill-rule="evenodd"/><path fill="#000000" d="m187.3057 55.670654l-1.765625 0l-0.84375 -2.59375l-4.953125 0l-0.828125 2.59375l-1.6875 0l3.953125 -11.90625l2.21875 0l3.90625 11.90625zm-3.0625 -4.046875l-2.015625 -6.359375l-2.015625 6.359375l4.03125 0z" fill-rule="nonzero"/><path fill="#00ff00" d="m286.2467 117.59843l159.18112 0l0 56.944878l-159.18112 0z" fill-rule="evenodd"/><path stroke="#000000" stroke-width="1.0" stroke-linejoin="round" stroke-linecap="butt" d="m286.2467 117.59843l159.18112 0l0 56.944878l-159.18112 0z" fill-rule="evenodd"/><path fill="#000000" d="m312.2779 141.99086l0 -6.5625q0 -0.4375 -0.03125 -0.703125q-0.03125 -0.28125 -0.109375 -0.4375q-0.0625 -0.15625 -0.171875 -0.21875q-0.109375 -0.0625 -0.25 -0.0625q-0.1875 0 -0.34375 0.109375q-0.15625 0.109375 -0.34375 0.359375q-0.171875 0.234375 -0.390625 0.640625q-0.203125 0.40625 -0.5 1.0l0 5.875l-1.4375 0l0 -6.390625q0 -0.5 -0.03125 -0.8125q-0.03125 -0.3125 -0.109375 -0.484375q-0.0625 -0.171875 -0.171875 -0.234375q-0.109375 -0.0625 -0.265625 -0.0625q-0.171875 0 -0.3125 0.09375q-0.140625 0.078125 -0.328125 0.328125q-0.171875 0.234375 -0.390625 0.640625q-0.21875 0.40625 -0.515625 1.046875l0 5.875l-1.46875 0l0 -9.140625l1.21875 0l0.078125 1.734375q0.234375 -0.515625 0.453125 -0.875q0.21875 -0.375 0.453125 -0.59375q0.25 -0.21875 0.515625 -0.328125q0.265625 -0.109375 0.59375 -0.109375q0.734375 0 1.109375 0.484375q0.390625 0.484375 0.390625 1.5q0.21875 -0.484375 0.421875 -0.84375q0.21875 -0.375 0.453125 -0.625q0.25 -0.25 0.53125 -0.375q0.296875 -0.140625 0.6875 -0.140625q1.71875 0 1.71875 2.65625l0 6.65625l-1.453125 0zm11.460419 -5.0625q0 0.34375 -0.015625 0.578125q0 0.21875 -0.03125 0.421875l-6.421875 0q0 1.40625 0.78125 2.15625q0.796875 0.75 2.265625 0.75q0.40625 0 0.796875 -0.03125q0.40625 -0.03125 0.78125 -0.078125q0.375 -0.0625 0.71875 -0.125q0.34375 -0.078125 0.625 -0.15625l0 1.296875q-0.640625 0.1875 -1.46875 0.296875q-0.8125 0.109375 -1.6875 0.109375q-1.171875 0 -2.015625 -0.3125q-0.84375 -0.3125 -1.390625 -0.921875q-0.546875 -0.609375 -0.8125 -1.484375q-0.25 -0.875 -0.25 -2.0q0 -0.953125 0.28125 -1.8125q0.28125 -0.859375 0.8125 -1.515625q0.53125 -0.65625 1.296875 -1.03125q0.78125 -0.390625 1.765625 -0.390625q0.953125 0 1.6875 0.3125q0.75 0.296875 1.25 0.84375q0.5 0.546875 0.765625 1.34375q0.265625 0.78125 0.265625 1.75zm-1.65625 -0.21875q0.03125 -0.609375 -0.125 -1.109375q-0.140625 -0.515625 -0.453125 -0.875q-0.296875 -0.375 -0.75 -0.578125q-0.453125 -0.203125 -1.0625 -0.203125q-0.515625 0 -0.953125 0.203125q-0.421875 0.203125 -0.734375 0.5625q-0.296875 0.359375 -0.5 0.875q-0.1875 0.515625 -0.234375 1.125l4.8125 0zm4.5541687 -3.859375l1.453125 0l0.046875 1.6875q0.8125 -0.984375 1.59375 -1.421875q0.796875 -0.4375 1.59375 -0.4375q1.421875 0 2.15625 0.921875q0.734375 0.921875 0.671875 2.734375l-1.59375 0q0.015625 -1.203125 -0.359375 -1.734375q-0.375 -0.546875 -1.109375 -0.546875q-0.3125 0 -0.640625 0.109375q-0.328125 0.109375 -0.671875 0.359375q-0.328125 0.25 -0.71875 0.640625q-0.375 0.390625 -0.8125 0.953125l0 5.875l-1.609375 0l0 -9.140625zm16.476044 1.28125q0.25 0.328125 0.390625 0.75q0.140625 0.421875 0.140625 0.921875q0 0.703125 -0.265625 1.296875q-0.25 0.578125 -0.734375 1.0q-0.46875 0.421875 -1.125 0.65625q-0.65625 0.234375 -1.453125 0.234375q-0.578125 0 -1.078125 -0.125q-0.5 -0.125 -0.78125 -0.3125q-0.1875 0.265625 -0.3125 0.5q-0.109375 0.21875 -0.109375 0.5q0 0.34375 0.328125 0.578125q0.34375 0.21875 0.890625 0.234375l2.40625 0.09375q0.671875 0.015625 1.25 0.171875q0.59375 0.15625 1.0 0.453125q0.421875 0.28125 0.640625 0.71875q0.234375 0.421875 0.234375 0.984375q0 0.609375 -0.265625 1.15625q-0.25 0.546875 -0.8125 0.953125q-0.546875 0.421875 -1.390625 0.671875q-0.84375 0.25 -2.015625 0.25q-1.109375 0 -1.890625 -0.1875q-0.78125 -0.171875 -1.28125 -0.484375q-0.5 -0.3125 -0.734375 -0.75q-0.21875 -0.421875 -0.21875 -0.953125q0 -0.65625 0.296875 -1.15625q0.3125 -0.5 0.96875 -0.96875q-0.234375 -0.109375 -0.40625 -0.265625q-0.171875 -0.171875 -0.28125 -0.359375q-0.109375 -0.203125 -0.171875 -0.421875q-0.046875 -0.21875 -0.046875 -0.4375q0 -0.578125 0.265625 -1.0625q0.28125 -0.5 0.671875 -0.9375q-0.171875 -0.21875 -0.3125 -0.40625q-0.125 -0.203125 -0.234375 -0.4375q-0.09375 -0.234375 -0.140625 -0.5q-0.046875 -0.28125 -0.046875 -0.625q0 -0.703125 0.25 -1.28125q0.265625 -0.59375 0.734375 -1.015625q0.46875 -0.421875 1.125 -0.65625q0.671875 -0.234375 1.46875 -0.234375q0.34375 0 0.640625 0.046875q0.3125 0.046875 0.546875 0.125l3.328125 0l0 1.28125l-1.46875 0zm-5.5 9.1875q0 0.640625 0.671875 0.9375q0.671875 0.296875 1.875 0.296875q0.75 0 1.265625 -0.140625q0.515625 -0.140625 0.828125 -0.359375q0.3125 -0.21875 0.453125 -0.515625q0.140625 -0.28125 0.140625 -0.578125q0 -0.5625 -0.453125 -0.828125q-0.453125 -0.265625 -1.390625 -0.296875l-2.390625 -0.09375q-0.296875 0.203125 -0.5 0.390625q-0.203125 0.203125 -0.3125 0.390625q-0.109375 0.203125 -0.15625 0.390625q-0.03125 0.203125 -0.03125 0.40625zm0.484375 -7.484375q0 0.4375 0.140625 0.8125q0.140625 0.359375 0.40625 0.609375q0.265625 0.25 0.625 0.390625q0.359375 0.140625 0.796875 0.140625q0.46875 0 0.84375 -0.15625q0.375 -0.15625 0.625 -0.421875q0.25 -0.28125 0.375 -0.640625q0.140625 -0.359375 0.140625 -0.734375q0 -0.4375 -0.15625 -0.796875q-0.140625 -0.375 -0.40625 -0.625q-0.265625 -0.25 -0.625 -0.390625q-0.359375 -0.140625 -0.796875 -0.140625q-0.46875 0 -0.84375 0.171875q-0.359375 0.15625 -0.625 0.421875q-0.25 0.265625 -0.375 0.625q-0.125 0.34375 -0.125 0.734375zm16.413544 1.09375q0 0.34375 -0.015625 0.578125q0 0.21875 -0.03125 0.421875l-6.421875 0q0 1.40625 0.78125 2.15625q0.796875 0.75 2.265625 0.75q0.40625 0 0.796875 -0.03125q0.40625 -0.03125 0.78125 -0.078125q0.375 -0.0625 0.71875 -0.125q0.34375 -0.078125 0.625 -0.15625l0 1.296875q-0.640625 0.1875 -1.46875 0.296875q-0.8125 0.109375 -1.6875 0.109375q-1.171875 0 -2.015625 -0.3125q-0.84375 -0.3125 -1.390625 -0.921875q-0.546875 -0.609375 -0.8125 -1.484375q-0.25 -0.875 -0.25 -2.0q0 -0.953125 0.28125 -1.8125q0.28125 -0.859375 0.8125 -1.515625q0.53125 -0.65625 1.296875 -1.03125q0.78125 -0.390625 1.765625 -0.390625q0.953125 0 1.6875 0.3125q0.75 0.296875 1.25 0.84375q0.5 0.546875 0.765625 1.34375q0.265625 0.78125 0.265625 1.75zm-1.65625 -0.21875q0.03125 -0.609375 -0.125 -1.109375q-0.140625 -0.515625 -0.453125 -0.875q-0.296875 -0.375 -0.75 -0.578125q-0.453125 -0.203125 -1.0625 -0.203125q-0.515625 0 -0.953125 0.203125q-0.421875 0.203125 -0.734375 0.5625q-0.296875 0.359375 -0.5 0.875q-0.1875 0.515625 -0.234375 1.125l4.8125 0zm12.976044 9.015625l-10.25 0l0 -1.3125l10.25 0l0 1.3125zm1.4604187 -12.875l1.421875 0l0.0625 1.46875q0.390625 -0.46875 0.765625 -0.78125q0.375 -0.3125 0.734375 -0.5q0.359375 -0.203125 0.734375 -0.28125q0.375 -0.078125 0.78125 -0.078125q1.40625 0 2.125 0.84375q0.734375 0.828125 0.734375 2.5l0 5.96875l-1.59375 0l0 -5.84375q0 -1.078125 -0.40625 -1.578125q-0.390625 -0.515625 -1.1875 -0.515625q-0.28125 0 -0.5625 0.09375q-0.28125 0.078125 -0.578125 0.296875q-0.296875 0.203125 -0.65625 0.578125q-0.34375 0.359375 -0.78125 0.90625l0 6.0625l-1.59375 0l0 -9.140625zm17.991669 4.078125q0 0.34375 -0.015625 0.578125q0 0.21875 -0.03125 0.421875l-6.421875 0q0 1.40625 0.78125 2.15625q0.796875 0.75 2.265625 0.75q0.40625 0 0.796875 -0.03125q0.40625 -0.03125 0.78125 -0.078125q0.375 -0.0625 0.71875 -0.125q0.34375 -0.078125 0.625 -0.15625l0 1.296875q-0.640625 0.1875 -1.46875 0.296875q-0.8125 0.109375 -1.6875 0.109375q-1.171875 0 -2.015625 -0.3125q-0.84375 -0.3125 -1.390625 -0.921875q-0.546875 -0.609375 -0.8125 -1.484375q-0.25 -0.875 -0.25 -2.0q0 -0.953125 0.28125 -1.8125q0.28125 -0.859375 0.8125 -1.515625q0.53125 -0.65625 1.296875 -1.03125q0.78125 -0.390625 1.765625 -0.390625q0.953125 0 1.6875 0.3125q0.75 0.296875 1.25 0.84375q0.5 0.546875 0.765625 1.34375q0.265625 0.78125 0.265625 1.75zm-1.65625 -0.21875q0.03125 -0.609375 -0.125 -1.109375q-0.140625 -0.515625 -0.453125 -0.875q-0.296875 -0.375 -0.75 -0.578125q-0.453125 -0.203125 -1.0625 -0.203125q-0.515625 0 -0.953125 0.203125q-0.421875 0.203125 -0.734375 0.5625q-0.296875 0.359375 -0.5 0.875q-0.1875 0.515625 -0.234375 1.125l4.8125 0zm11.429169 2.78125q0 0.484375 -0.171875 0.875q-0.15625 0.375 -0.4375 0.671875q-0.28125 0.296875 -0.65625 0.515625q-0.375 0.203125 -0.796875 0.34375q-0.421875 0.125 -0.875 0.1875q-0.453125 0.0625 -0.875 0.0625q-0.921875 0 -1.703125 -0.078125q-0.78125 -0.078125 -1.53125 -0.265625l0 -1.453125q0.796875 0.234375 1.59375 0.359375q0.796875 0.109375 1.578125 0.109375q1.140625 0 1.6875 -0.3125q0.546875 -0.3125 0.546875 -0.890625q0 -0.234375 -0.09375 -0.421875q-0.078125 -0.203125 -0.3125 -0.375q-0.21875 -0.1875 -0.703125 -0.375q-0.484375 -0.203125 -1.3125 -0.4375q-0.609375 -0.1875 -1.140625 -0.421875q-0.515625 -0.234375 -0.90625 -0.546875q-0.375 -0.328125 -0.59375 -0.75q-0.21875 -0.421875 -0.21875 -1.015625q0 -0.375 0.171875 -0.828125q0.171875 -0.453125 0.59375 -0.84375q0.4375 -0.40625 1.171875 -0.65625q0.734375 -0.265625 1.8125 -0.265625q0.546875 0 1.203125 0.0625q0.65625 0.0625 1.359375 0.203125l0 1.40625q-0.75 -0.171875 -1.421875 -0.25q-0.65625 -0.09375 -1.15625 -0.09375q-0.59375 0 -1.0 0.09375q-0.390625 0.078125 -0.65625 0.25q-0.25 0.15625 -0.359375 0.375q-0.109375 0.203125 -0.109375 0.453125q0 0.25 0.09375 0.453125q0.109375 0.1875 0.359375 0.375q0.265625 0.1875 0.71875 0.375q0.46875 0.1875 1.21875 0.40625q0.8125 0.234375 1.359375 0.5q0.5625 0.25 0.90625 0.578125q0.359375 0.3125 0.5 0.71875q0.15625 0.40625 0.15625 0.90625zm10.382294 2.375q-0.53125 0.140625 -1.109375 0.1875q-0.578125 0.0625 -1.171875 0.0625q-1.71875 0 -2.5625 -0.78125q-0.84375 -0.78125 -0.84375 -2.390625l0 -4.765625l-2.5625 0l0 -1.328125l2.5625 0l0 -2.515625l1.578125 -0.40625l0 2.921875l4.109375 0l0 1.328125l-4.109375 0l0 4.640625q0 0.984375 0.515625 1.46875q0.53125 0.484375 1.546875 0.484375q0.4375 0 0.953125 -0.0625q0.53125 -0.0625 1.09375 -0.21875l0 1.375zm10.616638 -4.9375q0 0.34375 -0.015625 0.578125q0 0.21875 -0.03125 0.421875l-6.4218445 0q0 1.40625 0.78125 2.15625q0.796875 0.75 2.265625 0.75q0.40625 0 0.796875 -0.03125q0.40625 -0.03125 0.78125 -0.078125q0.37496948 -0.0625 0.7187195 -0.125q0.34375 -0.078125 0.625 -0.15625l0 1.296875q-0.640625 0.1875 -1.4687195 0.296875q-0.8125 0.109375 -1.6875 0.109375q-1.171875 0 -2.015625 -0.3125q-0.84375 -0.3125 -1.390625 -0.921875q-0.546875 -0.609375 -0.8125 -1.484375q-0.25 -0.875 -0.25 -2.0q0 -0.953125 0.28125 -1.8125q0.28125 -0.859375 0.8125 -1.515625q0.53125 -0.65625 1.296875 -1.03125q0.78125 -0.390625 1.765625 -0.390625q0.953125 0 1.6875 0.3125q0.7499695 0.296875 1.2499695 0.84375q0.5 0.546875 0.765625 1.34375q0.265625 0.78125 0.265625 1.75zm-1.65625 -0.21875q0.03125 -0.609375 -0.125 -1.109375q-0.14059448 -0.515625 -0.45309448 -0.875q-0.296875 -0.375 -0.75 -0.578125q-0.453125 -0.203125 -1.0625 -0.203125q-0.515625 0 -0.953125 0.203125q-0.421875 0.203125 -0.734375 0.5625q-0.296875 0.359375 -0.5 0.875q-0.1875 0.515625 -0.234375 1.125l4.8124695 0zm3.7260437 0.90625q0 -1.171875 0.3125 -2.078125q0.3125 -0.90625 0.90625 -1.53125q0.59375 -0.625 1.40625 -0.9375q0.828125 -0.328125 1.84375 -0.328125q0.4375 0 0.859375 0.0625q0.421875 0.046875 0.828125 0.15625l0 -3.84375l1.59375 0l0 12.875l-1.421875 0l-0.046875 -1.734375q-0.671875 0.96875 -1.453125 1.4375q-0.765625 0.453125 -1.671875 0.453125q-0.78125 0 -1.375 -0.3125q-0.59375 -0.328125 -1.0 -0.921875q-0.390625 -0.609375 -0.59375 -1.4375q-0.1875 -0.84375 -0.1875 -1.859375zm1.609375 -0.109375q0 1.65625 0.484375 2.484375q0.5 0.8125 1.390625 0.8125q0.59375 0 1.265625 -0.53125q0.671875 -0.546875 1.40625 -1.609375l0 -4.234375q-0.390625 -0.1875 -0.859375 -0.28125q-0.46875 -0.09375 -0.9375 -0.09375q-1.296875 0 -2.03125 0.84375q-0.71875 0.828125 -0.71875 2.609375z" fill-rule="nonzero"/><path fill="#000000" d="m335.9768 167.91273q-1.359375 -1.703125 -2.296875 -4.0q-0.9375 -2.296875 -0.9375 -4.765625q0 -2.15625 0.703125 -4.140625q0.828125 -2.3125 2.53125 -4.59375l1.171875 0q-1.09375 1.890625 -1.453125 2.703125q-0.546875 1.25 -0.875 2.625q-0.390625 1.703125 -0.390625 3.421875q0 4.375 2.71875 8.75l-1.171875 0zm9.353302 -3.921875l0 -1.21875q-0.90625 1.4375 -2.703125 1.4375q-1.15625 0 -2.125 -0.640625q-0.96875 -0.640625 -1.5 -1.78125q-0.53125 -1.140625 -0.53125 -2.625q0 -1.453125 0.484375 -2.625q0.484375 -1.1875 1.4375 -1.8125q0.96875 -0.625 2.171875 -0.625q0.875 0 1.546875 0.375q0.6875 0.359375 1.109375 0.953125l0 -4.796875l1.640625 0l0 13.359375l-1.53125 0zm-5.171875 -4.828125q0 1.859375 0.78125 2.78125q0.78125 0.921875 1.84375 0.921875q1.078125 0 1.828125 -0.875q0.75 -0.890625 0.75 -2.6875q0 -1.984375 -0.765625 -2.90625q-0.765625 -0.9375 -1.890625 -0.9375q-1.078125 0 -1.8125 0.890625q-0.734375 0.890625 -0.734375 2.8125zm15.906982 1.71875l1.6875 0.203125q-0.40625 1.484375 -1.484375 2.3125q-1.078125 0.8125 -2.765625 0.8125q-2.125 0 -3.375 -1.296875q-1.234375 -1.3125 -1.234375 -3.671875q0 -2.453125 1.25 -3.796875q1.265625 -1.34375 3.265625 -1.34375q1.9375 0 3.15625 1.328125q1.234375 1.3125 1.234375 3.703125q0 0.15625 0 0.4375l-7.21875 0q0.09375 1.59375 0.90625 2.453125q0.8125 0.84375 2.015625 0.84375q0.90625 0 1.546875 -0.46875q0.640625 -0.484375 1.015625 -1.515625zm-5.390625 -2.65625l5.40625 0q-0.109375 -1.21875 -0.625 -1.828125q-0.78125 -0.953125 -2.03125 -0.953125q-1.125 0 -1.90625 0.765625q-0.765625 0.75 -0.84375 2.015625zm9.531952 5.765625l0 -8.40625l-1.453125 0l0 -1.265625l1.453125 0l0 -1.03125q0 -0.96875 0.171875 -1.453125q0.234375 -0.640625 0.828125 -1.03125q0.59375 -0.390625 1.671875 -0.390625q0.6875 0 1.53125 0.15625l-0.25 1.4375q-0.5 -0.09375 -0.953125 -0.09375q-0.75 0 -1.0625 0.328125q-0.3125 0.3125 -0.3125 1.1875l0 0.890625l1.890625 0l0 1.265625l-1.890625 0l0 8.40625l-1.625 0zm11.105194 -1.1875q-0.921875 0.765625 -1.765625 1.09375q-0.828125 0.3125 -1.796875 0.3125q-1.59375 0 -2.453125 -0.78125q-0.859375 -0.78125 -0.859375 -1.984375q0 -0.71875 0.328125 -1.296875q0.328125 -0.59375 0.84375 -0.9375q0.53125 -0.359375 1.1875 -0.546875q0.46875 -0.125 1.453125 -0.25q1.984375 -0.234375 2.921875 -0.5625q0.015625 -0.34375 0.015625 -0.421875q0 -1.0 -0.46875 -1.421875q-0.625 -0.546875 -1.875 -0.546875q-1.15625 0 -1.703125 0.40625q-0.546875 0.40625 -0.8125 1.421875l-1.609375 -0.21875q0.21875 -1.015625 0.71875 -1.640625q0.5 -0.640625 1.453125 -0.984375q0.953125 -0.34375 2.1875 -0.34375q1.25 0 2.015625 0.296875q0.78125 0.28125 1.140625 0.734375q0.375 0.4375 0.515625 1.109375q0.078125 0.421875 0.078125 1.515625l0 2.1875q0 2.28125 0.109375 2.890625q0.109375 0.59375 0.40625 1.15625l-1.703125 0q-0.265625 -0.515625 -0.328125 -1.1875zm-0.140625 -3.671875q-0.890625 0.375 -2.671875 0.625q-1.015625 0.140625 -1.4375 0.328125q-0.421875 0.1875 -0.65625 0.53125q-0.21875 0.34375 -0.21875 0.78125q0 0.65625 0.5 1.09375q0.5 0.4375 1.453125 0.4375q0.9375 0 1.671875 -0.40625q0.75 -0.421875 1.09375 -1.140625q0.265625 -0.5625 0.265625 -1.640625l0 -0.609375zm10.531952 4.859375l0 -1.421875q-1.125 1.640625 -3.0625 1.640625q-0.859375 0 -1.609375 -0.328125q-0.734375 -0.328125 -1.09375 -0.828125q-0.359375 -0.5 -0.5 -1.21875q-0.109375 -0.46875 -0.109375 -1.53125l0 -5.984375l1.640625 0l0 5.359375q0 1.28125 0.109375 1.734375q0.15625 0.640625 0.65625 1.015625q0.5 0.375 1.234375 0.375q0.734375 0 1.375 -0.375q0.65625 -0.390625 0.921875 -1.03125q0.265625 -0.65625 0.265625 -1.890625l0 -5.1875l1.640625 0l0 9.671875l-1.46875 0zm4.0007324 0l0 -13.359375l1.640625 0l0 13.359375l-1.640625 0zm7.769806 -1.46875l0.234375 1.453125q-0.6875 0.140625 -1.234375 0.140625q-0.890625 0 -1.390625 -0.28125q-0.484375 -0.28125 -0.6875 -0.734375q-0.203125 -0.46875 -0.203125 -1.9375l0 -5.578125l-1.203125 0l0 -1.265625l1.203125 0l0 -2.390625l1.625 -0.984375l0 3.375l1.65625 0l0 1.265625l-1.65625 0l0 5.671875q0 0.6875 0.078125 0.890625q0.09375 0.203125 0.28125 0.328125q0.203125 0.109375 0.578125 0.109375q0.265625 0 0.71875 -0.0625zm2.683319 5.390625l-1.1875 0q2.734375 -4.375 2.734375 -8.75q0 -1.71875 -0.390625 -3.390625q-0.3125 -1.375 -0.875 -2.625q-0.359375 -0.828125 -1.46875 -2.734375l1.1875 0q1.703125 2.28125 2.53125 4.59375q0.6875 1.984375 0.6875 4.140625q0 2.46875 -0.9375 4.765625q-0.9375 2.296875 -2.28125 4.0z" fill-rule="nonzero"/><path fill="#000000" fill-opacity="0.0" d="m284.05774 78.16535l163.55905 0l0 29.196854l-163.55905 0z" fill-rule="evenodd"/><path fill="#000000" d="m324.25757 93.52285l-2.703125 0l0 -1.3125l4.296875 0l0 11.546875l2.734375 0l0 1.328125l-7.34375 0l0 -1.328125l3.015625 0l0 -10.234375zm10.257294 3.734375l-2.703125 0l0 -1.3125l4.296875 0l0 7.8125l2.734375 0l0 1.328125l-7.34375 0l0 -1.328125l3.015625 0l0 -6.5zm0.546875 -5.15625q0.265625 0 0.484375 0.09375q0.234375 0.09375 0.40625 0.28125q0.171875 0.171875 0.265625 0.390625q0.09375 0.21875 0.09375 0.484375q0 0.25 -0.09375 0.484375q-0.09375 0.234375 -0.265625 0.40625q-0.171875 0.171875 -0.40625 0.265625q-0.21875 0.09375 -0.484375 0.09375q-0.265625 0 -0.5 -0.09375q-0.21875 -0.09375 -0.390625 -0.265625q-0.15625 -0.171875 -0.265625 -0.40625q-0.09375 -0.234375 -0.09375 -0.484375q0 -0.265625 0.09375 -0.484375q0.109375 -0.21875 0.265625 -0.390625q0.171875 -0.1875 0.390625 -0.28125q0.234375 -0.09375 0.5 -0.09375zm6.5854187 3.84375l1.421875 0l0.0625 1.46875q0.390625 -0.46875 0.765625 -0.78125q0.375 -0.3125 0.734375 -0.5q0.359375 -0.203125 0.734375 -0.28125q0.375 -0.078125 0.78125 -0.078125q1.40625 0 2.125 0.84375q0.734375 0.828125 0.734375 2.5l0 5.96875l-1.59375 0l0 -5.84375q0 -1.078125 -0.40625 -1.578125q-0.390625 -0.515625 -1.1875 -0.515625q-0.28125 0 -0.5625 0.09375q-0.28125 0.078125 -0.578125 0.296875q-0.296875 0.203125 -0.65625 0.578125q-0.34375 0.359375 -0.78125 0.90625l0 6.0625l-1.59375 0l0 -9.140625zm18.491669 9.140625l-2.1875 0l-4.25 -4.90625l0 4.90625l-1.59375 0l0 -12.875l1.59375 0l0 7.90625l4.09375 -4.171875l2.109375 0l-4.296875 4.21875l4.53125 4.921875zm10.382294 0l-1.59375 0l-0.234375 -7.421875l-0.09375 -2.859375l-0.5625 1.65625l-1.75 4.75l-1.125 0l-1.671875 -4.5625l-0.5625 -1.84375l-0.03125 2.984375l-0.203125 7.296875l-1.53125 0l0.578125 -11.90625l1.921875 0l1.609375 4.484375l0.515625 1.515625l0.5 -1.515625l1.6875 -4.484375l1.96875 0l0.578125 11.90625zm9.632294 -5.0625q0 0.34375 -0.015625 0.578125q0 0.21875 -0.03125 0.421875l-6.421875 0q0 1.40625 0.78125 2.15625q0.796875 0.75 2.265625 0.75q0.40625 0 0.796875 -0.03125q0.40625 -0.03125 0.78125 -0.078125q0.375 -0.0625 0.71875 -0.125q0.34375 -0.078125 0.625 -0.15625l0 1.296875q-0.640625 0.1875 -1.46875 0.296875q-0.8125 0.109375 -1.6875 0.109375q-1.171875 0 -2.015625 -0.3125q-0.84375 -0.3125 -1.390625 -0.921875q-0.546875 -0.609375 -0.8125 -1.484375q-0.25 -0.875 -0.25 -2.0q0 -0.953125 0.28125 -1.8125q0.28125 -0.859375 0.8125 -1.515625q0.53125 -0.65625 1.296875 -1.03125q0.78125 -0.390625 1.765625 -0.390625q0.953125 0 1.6875 0.3125q0.75 0.296875 1.25 0.84375q0.5 0.546875 0.765625 1.34375q0.265625 0.78125 0.265625 1.75zm-1.65625 -0.21875q0.03125 -0.609375 -0.125 -1.109375q-0.140625 -0.515625 -0.453125 -0.875q-0.296875 -0.375 -0.75 -0.578125q-0.453125 -0.203125 -1.0625 -0.203125q-0.515625 0 -0.953125 0.203125q-0.421875 0.203125 -0.734375 0.5625q-0.296875 0.359375 -0.5 0.875q-0.1875 0.515625 -0.234375 1.125l4.8125 0zm4.5541687 -3.859375l1.453125 0l0.046875 1.6875q0.8125 -0.984375 1.59375 -1.421875q0.796875 -0.4375 1.59375 -0.4375q1.421875 0 2.15625 0.921875q0.734375 0.921875 0.671875 2.734375l-1.59375 0q0.015625 -1.203125 -0.359375 -1.734375q-0.375 -0.546875 -1.109375 -0.546875q-0.3125 0 -0.640625 0.109375q-0.328125 0.109375 -0.671875 0.359375q-0.328125 0.25 -0.71875 0.640625q-0.375 0.390625 -0.8125 0.953125l0 5.875l-1.609375 0l0 -9.140625zm16.476044 1.28125q0.25 0.328125 0.390625 0.75q0.140625 0.421875 0.140625 0.921875q0 0.703125 -0.265625 1.296875q-0.25 0.578125 -0.734375 1.0q-0.46875 0.421875 -1.125 0.65625q-0.65625 0.234375 -1.453125 0.234375q-0.578125 0 -1.078125 -0.125q-0.5 -0.125 -0.78125 -0.3125q-0.1875 0.265625 -0.3125 0.5q-0.109375 0.21875 -0.109375 0.5q0 0.34375 0.328125 0.578125q0.34375 0.21875 0.890625 0.234375l2.40625 0.09375q0.671875 0.015625 1.25 0.171875q0.59375 0.15625 1.0 0.453125q0.421875 0.28125 0.640625 0.71875q0.234375 0.421875 0.234375 0.984375q0 0.609375 -0.265625 1.15625q-0.25 0.546875 -0.8125 0.953125q-0.546875 0.421875 -1.390625 0.671875q-0.84375 0.25 -2.015625 0.25q-1.109375 0 -1.890625 -0.1875q-0.78125 -0.171875 -1.28125 -0.484375q-0.5 -0.3125 -0.734375 -0.75q-0.21875 -0.421875 -0.21875 -0.953125q0 -0.65625 0.296875 -1.15625q0.3125 -0.5 0.96875 -0.96875q-0.234375 -0.109375 -0.40625 -0.265625q-0.171875 -0.171875 -0.28125 -0.359375q-0.109375 -0.203125 -0.171875 -0.421875q-0.046875 -0.21875 -0.046875 -0.4375q0 -0.578125 0.265625 -1.0625q0.28125 -0.5 0.671875 -0.9375q-0.171875 -0.21875 -0.3125 -0.40625q-0.125 -0.203125 -0.234375 -0.4375q-0.09375 -0.234375 -0.140625 -0.5q-0.046875 -0.28125 -0.046875 -0.625q0 -0.703125 0.25 -1.28125q0.265625 -0.59375 0.734375 -1.015625q0.46875 -0.421875 1.125 -0.65625q0.671875 -0.234375 1.46875 -0.234375q0.34375 0 0.640625 0.046875q0.3125 0.046875 0.546875 0.125l3.328125 0l0 1.28125l-1.46875 0zm-5.5 9.1875q0 0.640625 0.671875 0.9375q0.671875 0.296875 1.875 0.296875q0.75 0 1.265625 -0.140625q0.515625 -0.140625 0.828125 -0.359375q0.3125 -0.21875 0.453125 -0.515625q0.140625 -0.28125 0.140625 -0.578125q0 -0.5625 -0.453125 -0.828125q-0.453125 -0.265625 -1.390625 -0.296875l-2.390625 -0.09375q-0.296875 0.203125 -0.5 0.390625q-0.203125 0.203125 -0.3125 0.390625q-0.109375 0.203125 -0.15625 0.390625q-0.03125 0.203125 -0.03125 0.40625zm0.484375 -7.484375q0 0.4375 0.140625 0.8125q0.140625 0.359375 0.40625 0.609375q0.265625 0.25 0.625 0.390625q0.359375 0.140625 0.796875 0.140625q0.46875 0 0.84375 -0.15625q0.375 -0.15625 0.625 -0.421875q0.25 -0.28125 0.375 -0.640625q0.140625 -0.359375 0.140625 -0.734375q0 -0.4375 -0.15625 -0.796875q-0.140625 -0.375 -0.40625 -0.625q-0.265625 -0.25 -0.625 -0.390625q-0.359375 -0.140625 -0.796875 -0.140625q-0.46875 0 -0.84375 0.171875q-0.359375 0.15625 -0.625 0.421875q-0.25 0.265625 -0.375 0.625q-0.125 0.34375 -0.125 0.734375zm16.413544 1.09375q0 0.34375 -0.015625 0.578125q0 0.21875 -0.03125 0.421875l-6.421875 0q0 1.40625 0.78125 2.15625q0.796875 0.75 2.265625 0.75q0.40625 0 0.796875 -0.03125q0.40625 -0.03125 0.78125 -0.078125q0.375 -0.0625 0.71875 -0.125q0.34375 -0.078125 0.625 -0.15625l0 1.296875q-0.640625 0.1875 -1.46875 0.296875q-0.8125 0.109375 -1.6875 0.109375q-1.171875 0 -2.015625 -0.3125q-0.84375 -0.3125 -1.390625 -0.921875q-0.546875 -0.609375 -0.8125 -1.484375q-0.25 -0.875 -0.25 -2.0q0 -0.953125 0.28125 -1.8125q0.28125 -0.859375 0.8125 -1.515625q0.53125 -0.65625 1.296875 -1.03125q0.78125 -0.390625 1.765625 -0.390625q0.953125 0 1.6875 0.3125q0.75 0.296875 1.25 0.84375q0.5 0.546875 0.765625 1.34375q0.265625 0.78125 0.265625 1.75zm-1.65625 -0.21875q0.03125 -0.609375 -0.125 -1.109375q-0.140625 -0.515625 -0.453125 -0.875q-0.296875 -0.375 -0.75 -0.578125q-0.453125 -0.203125 -1.0625 -0.203125q-0.515625 0 -0.953125 0.203125q-0.421875 0.203125 -0.734375 0.5625q-0.296875 0.359375 -0.5 0.875q-0.1875 0.515625 -0.234375 1.125l4.8125 0z" fill-rule="nonzero"/><path fill="#000000" fill-opacity="0.0" d="m210.73491 48.750656l75.52757 97.32283" fill-rule="evenodd"/><path stroke="#000000" stroke-width="1.0" stroke-linejoin="round" stroke-linecap="butt" d="m210.73491 48.750656l71.849014 92.58276" fill-rule="evenodd"/><path fill="#000000" stroke="#000000" stroke-width="1.0" stroke-linecap="butt" d="m281.27902 142.34608l4.087158 2.5724792l-1.477356 -4.597809z" fill-rule="evenodd"/><path fill="#000000" fill-opacity="0.0" d="m65.71654 146.80052l0 0c0 -8.062485 6.5359344 -14.598419 14.598427 -14.598419l0 0c3.8717422 0 7.5849075 1.5380402 10.322639 4.275772c2.7377396 2.7377472 4.2757797 6.4509125 4.2757797 10.322647l0 0c0 8.062485 -6.5359344 14.598434 -14.598419 14.598434l0 0c-8.062492 0 -14.598427 -6.5359497 -14.598427 -14.598434z" fill-rule="evenodd"/><path stroke="#000000" stroke-width="1.0" stroke-linejoin="round" stroke-linecap="butt" d="m65.71654 146.80052l0 0c0 -8.062485 6.5359344 -14.598419 14.598427 -14.598419l0 0c3.8717422 0 7.5849075 1.5380402 10.322639 4.275772c2.7377396 2.7377472 4.2757797 6.4509125 4.2757797 10.322647l0 0c0 8.062485 -6.5359344 14.598434 -14.598419 14.598434l0 0c-8.062492 0 -14.598427 -6.5359497 -14.598427 -14.598434z" fill-rule="evenodd"/><path fill="#ffff00" d="m578.33594 117.59843l163.55908 0l0 56.944878l-163.55908 0z" fill-rule="evenodd"/><path stroke="#000000" stroke-width="1.0" stroke-linejoin="round" stroke-linecap="butt" d="m578.33594 117.59843l163.55908 0l0 56.944878l-163.55908 0z" fill-rule="evenodd"/><path fill="#000000" d="m605.89984 152.99086l-0.03125 -1.234375q-0.75 0.75 -1.515625 1.078125q-0.765625 0.3125 -1.625 0.3125q-0.78125 0 -1.34375 -0.1875q-0.546875 -0.203125 -0.90625 -0.546875q-0.359375 -0.359375 -0.53125 -0.828125q-0.15625 -0.484375 -0.15625 -1.03125q0 -1.375 1.015625 -2.15625q1.03125 -0.78125 3.03125 -0.78125l1.890625 0l0 -0.796875q0 -0.8125 -0.515625 -1.296875q-0.515625 -0.5 -1.578125 -0.5q-0.78125 0 -1.53125 0.1875q-0.75 0.171875 -1.546875 0.484375l0 -1.4375q0.296875 -0.109375 0.65625 -0.203125q0.375 -0.109375 0.78125 -0.1875q0.40625 -0.078125 0.859375 -0.125q0.453125 -0.0625 0.90625 -0.0625q0.828125 0 1.484375 0.1875q0.671875 0.171875 1.125 0.546875q0.46875 0.375 0.703125 0.953125q0.25 0.5625 0.25 1.328125l0 6.296875l-1.421875 0zm-0.171875 -4.15625l-2.015625 0q-0.578125 0 -1.015625 0.125q-0.421875 0.109375 -0.703125 0.328125q-0.265625 0.21875 -0.40625 0.53125q-0.125 0.296875 -0.125 0.671875q0 0.265625 0.078125 0.515625q0.078125 0.234375 0.265625 0.421875q0.1875 0.1875 0.46875 0.296875q0.296875 0.109375 0.71875 0.109375q0.546875 0 1.25 -0.328125q0.703125 -0.34375 1.484375 -1.0625l0 -1.609375zm7.679199 -7.40625l-2.703125 0l0 -1.3125l4.296875 0l0 11.546875l2.734375 0l0 1.328125l-7.34375 0l0 -1.328125l3.015625 0l0 -10.234375zm10.257263 0l-2.703125 0l0 -1.3125l4.296875 0l0 11.546875l2.734375 0l0 1.328125l-7.34375 0l0 -1.328125l3.015625 0l0 -10.234375zm15.929199 15.296875l-10.25 0l0 -1.3125l10.25 0l0 1.3125zm1.4603882 -12.875l1.421875 0l0.0625 1.46875q0.390625 -0.46875 0.765625 -0.78125q0.375 -0.3125 0.734375 -0.5q0.359375 -0.203125 0.734375 -0.28125q0.375 -0.078125 0.78125 -0.078125q1.40625 0 2.125 0.84375q0.734375 0.828125 0.734375 2.5l0 5.96875l-1.59375 0l0 -5.84375q0 -1.078125 -0.40625 -1.578125q-0.390625 -0.515625 -1.1875 -0.515625q-0.28125 0 -0.5625 0.09375q-0.28125 0.078125 -0.578125 0.296875q-0.296875 0.203125 -0.65625 0.578125q-0.34375 0.359375 -0.78125 0.90625l0 6.0625l-1.59375 0l0 -9.140625zm18.226074 4.5q0 1.0625 -0.3125 1.953125q-0.296875 0.890625 -0.859375 1.53125q-0.5625 0.625 -1.375 0.96875q-0.8125 0.34375 -1.84375 0.34375q-0.984375 0 -1.765625 -0.296875q-0.765625 -0.3125 -1.3125 -0.890625q-0.546875 -0.59375 -0.828125 -1.46875q-0.28125 -0.875 -0.28125 -2.015625q0 -1.0625 0.296875 -1.9375q0.296875 -0.890625 0.859375 -1.515625q0.5625 -0.640625 1.375 -0.984375q0.8125 -0.359375 1.84375 -0.359375q0.984375 0 1.765625 0.3125q0.78125 0.296875 1.3125 0.890625q0.546875 0.578125 0.828125 1.453125q0.296875 0.875 0.296875 2.015625zm-1.625 0.0625q0 -0.84375 -0.1875 -1.46875q-0.1875 -0.640625 -0.53125 -1.0625q-0.34375 -0.421875 -0.84375 -0.640625q-0.5 -0.21875 -1.109375 -0.21875q-0.703125 0 -1.21875 0.28125q-0.5 0.28125 -0.828125 0.75q-0.3125 0.453125 -0.46875 1.078125q-0.15625 0.609375 -0.15625 1.28125q0 0.859375 0.1875 1.5q0.1875 0.625 0.53125 1.046875q0.359375 0.421875 0.84375 0.640625q0.5 0.21875 1.109375 0.21875q0.71875 0 1.21875 -0.28125q0.5 -0.28125 0.828125 -0.734375q0.328125 -0.46875 0.46875 -1.078125q0.15625 -0.625 0.15625 -1.3125zm3.9135132 -4.5625l1.421875 0l0.0625 1.46875q0.390625 -0.46875 0.765625 -0.78125q0.375 -0.3125 0.734375 -0.5q0.359375 -0.203125 0.734375 -0.28125q0.375 -0.078125 0.78125 -0.078125q1.40625 0 2.125 0.84375q0.734375 0.828125 0.734375 2.5l0 5.96875l-1.59375 0l0 -5.84375q0 -1.078125 -0.40625 -1.578125q-0.390625 -0.515625 -1.1875 -0.515625q-0.28125 0 -0.5625 0.09375q-0.28125 0.078125 -0.578125 0.296875q-0.296875 0.203125 -0.65625 0.578125q-0.34375 0.359375 -0.78125 0.90625l0 6.0625l-1.59375 0l0 -9.140625zm19.0542 12.875l-10.25 0l0 -1.3125l10.25 0l0 1.3125zm1.4603882 -12.875l1.421875 0l0.0625 1.46875q0.390625 -0.46875 0.765625 -0.78125q0.375 -0.3125 0.734375 -0.5q0.359375 -0.203125 0.734375 -0.28125q0.375 -0.078125 0.78125 -0.078125q1.40625 0 2.125 0.84375q0.734375 0.828125 0.734375 2.5l0 5.96875l-1.59375 0l0 -5.84375q0 -1.078125 -0.40625 -1.578125q-0.390625 -0.515625 -1.1875 -0.515625q-0.28125 0 -0.5625 0.09375q-0.28125 0.078125 -0.578125 0.296875q-0.296875 0.203125 -0.65625 0.578125q-0.34375 0.359375 -0.78125 0.90625l0 6.0625l-1.59375 0l0 -9.140625zm17.6167 9.140625l-1.421875 0l-0.0625 -1.46875q-0.40625 0.46875 -0.78125 0.78125q-0.359375 0.3125 -0.734375 0.515625q-0.359375 0.1875 -0.734375 0.25q-0.359375 0.078125 -0.765625 0.078125q-1.421875 0 -2.140625 -0.828125q-0.71875 -0.828125 -0.71875 -2.5l0 -5.96875l1.59375 0l0 5.84375q0 2.109375 1.578125 2.109375q0.296875 0 0.5625 -0.078125q0.28125 -0.09375 0.578125 -0.3125q0.3125 -0.21875 0.65625 -0.578125q0.359375 -0.359375 0.796875 -0.921875l0 -6.0625l1.59375 0l0 9.140625zm6.022888 -11.5625l-2.703125 0l0 -1.3125l4.296875 0l0 11.546875l2.734375 0l0 1.328125l-7.34375 0l0 -1.328125l3.015625 0l0 -10.234375zm10.257324 0l-2.703125 0l0 -1.3125l4.296875 0l0 11.546875l2.734375 0l0 1.328125l-7.34375 0l0 -1.328125l3.015625 0l0 -10.234375z" fill-rule="nonzero"/><path fill="#000000" fill-opacity="0.0" d="m578.33594 78.16535l163.55908 0l0 29.196854l-163.55908 0z" fill-rule="evenodd"/><path fill="#000000" d="m623.2389 100.350975q0 1.21875 -0.34375 2.140625q-0.34375 0.90625 -0.953125 1.515625q-0.59375 0.59375 -1.421875 0.890625q-0.8125 0.296875 -1.765625 0.296875q-0.4375 0 -0.875 -0.046875q-0.4375 -0.046875 -0.875 -0.15625l0 3.828125l-1.59375 0l0 -12.875l1.421875 0l0.09375 1.53125q0.6875 -0.9375 1.453125 -1.3125q0.78125 -0.390625 1.6875 -0.390625q0.78125 0 1.375 0.328125q0.59375 0.328125 0.984375 0.9375q0.40625 0.59375 0.609375 1.4375q0.203125 0.828125 0.203125 1.875zm-1.625 0.0625q0 -0.71875 -0.109375 -1.3125q-0.109375 -0.609375 -0.34375 -1.03125q-0.21875 -0.421875 -0.578125 -0.65625q-0.34375 -0.25 -0.84375 -0.25q-0.296875 0 -0.609375 0.09375q-0.3125 0.09375 -0.640625 0.328125q-0.328125 0.21875 -0.703125 0.59375q-0.359375 0.359375 -0.78125 0.90625l0 4.4375q0.4375 0.171875 0.921875 0.28125q0.484375 0.109375 0.9375 0.109375q1.28125 0 2.015625 -0.875q0.734375 -0.875 0.734375 -2.625zm7.179199 -3.15625l-2.703125 0l0 -1.3125l4.296875 0l0 7.8125l2.734375 0l0 1.328125l-7.34375 0l0 -1.328125l3.015625 0l0 -6.5zm0.546875 -5.15625q0.265625 0 0.484375 0.09375q0.234375 0.09375 0.40625 0.28125q0.171875 0.171875 0.265625 0.390625q0.09375 0.21875 0.09375 0.484375q0 0.25 -0.09375 0.484375q-0.09375 0.234375 -0.265625 0.40625q-0.171875 0.171875 -0.40625 0.265625q-0.21875 0.09375 -0.484375 0.09375q-0.265625 0 -0.5 -0.09375q-0.21875 -0.09375 -0.390625 -0.265625q-0.15625 -0.171875 -0.265625 -0.40625q-0.09375 -0.234375 -0.09375 -0.484375q0 -0.265625 0.09375 -0.484375q0.109375 -0.21875 0.265625 -0.390625q0.171875 -0.1875 0.390625 -0.28125q0.234375 -0.09375 0.5 -0.09375zm13.694763 12.640625q-0.625 0.25 -1.28125 0.359375q-0.640625 0.109375 -1.328125 0.109375q-2.171875 0 -3.34375 -1.171875q-1.171875 -1.171875 -1.171875 -3.4375q0 -1.078125 0.328125 -1.953125q0.34375 -0.890625 0.953125 -1.515625q0.609375 -0.640625 1.453125 -0.984375q0.859375 -0.34375 1.875 -0.34375q0.71875 0 1.328125 0.109375q0.625 0.09375 1.1875 0.328125l0 1.515625q-0.59375 -0.3125 -1.21875 -0.453125q-0.609375 -0.140625 -1.265625 -0.140625q-0.609375 0 -1.15625 0.234375q-0.53125 0.234375 -0.9375 0.671875q-0.40625 0.421875 -0.65625 1.0625q-0.234375 0.625 -0.234375 1.421875q0 1.65625 0.796875 2.484375q0.8125 0.8125 2.25 0.8125q0.640625 0 1.25 -0.140625q0.609375 -0.140625 1.171875 -0.4375l0 1.46875zm11.382324 0.34375l-2.1875 0l-4.25 -4.90625l0 4.90625l-1.59375 0l0 -12.875l1.59375 0l0 7.90625l4.09375 -4.171875l2.109375 0l-4.296875 4.21875l4.53125 4.921875zm10.788513 -11.90625l-4.046875 11.90625l-2.1875 0l-3.953125 -11.90625l1.84375 0l2.5625 8.03125l0.734375 2.34375l0.734375 -2.34375l2.578125 -8.03125l1.734375 0zm7.366699 11.90625l-0.03125 -1.234375q-0.75 0.75 -1.515625 1.078125q-0.765625 0.3125 -1.625 0.3125q-0.78125 0 -1.34375 -0.1875q-0.546875 -0.203125 -0.90625 -0.546875q-0.359375 -0.359375 -0.53125 -0.828125q-0.15625 -0.484375 -0.15625 -1.03125q0 -1.375 1.015625 -2.15625q1.03125 -0.78125 3.03125 -0.78125l1.890625 0l0 -0.796875q0 -0.8125 -0.515625 -1.296875q-0.515625 -0.5 -1.578125 -0.5q-0.78125 0 -1.53125 0.1875q-0.75 0.171875 -1.546875 0.484375l0 -1.4375q0.296875 -0.109375 0.65625 -0.203125q0.375 -0.109375 0.78125 -0.1875q0.40625 -0.078125 0.859375 -0.125q0.453125 -0.0625 0.90625 -0.0625q0.828125 0 1.484375 0.1875q0.671875 0.171875 1.125 0.546875q0.46875 0.375 0.703125 0.953125q0.25 0.5625 0.25 1.328125l0 6.296875l-1.421875 0zm-0.171875 -4.15625l-2.015625 0q-0.578125 0 -1.015625 0.125q-0.421875 0.109375 -0.703125 0.328125q-0.265625 0.21875 -0.40625 0.53125q-0.125 0.296875 -0.125 0.671875q0 0.265625 0.078125 0.515625q0.078125 0.234375 0.265625 0.421875q0.1875 0.1875 0.46875 0.296875q0.296875 0.109375 0.71875 0.109375q0.546875 0 1.25 -0.328125q0.703125 -0.34375 1.484375 -1.0625l0 -1.609375zm7.679138 -7.40625l-2.703125 0l0 -1.3125l4.296875 0l0 11.546875l2.734375 0l0 1.328125l-7.34375 0l0 -1.328125l3.015625 0l0 -10.234375zm14.491699 11.5625l-1.421875 0l-0.0625 -1.46875q-0.40625 0.46875 -0.78125 0.78125q-0.359375 0.3125 -0.734375 0.515625q-0.359375 0.1875 -0.734375 0.25q-0.359375 0.078125 -0.765625 0.078125q-1.421875 0 -2.140625 -0.828125q-0.71875 -0.828125 -0.71875 -2.5l0 -5.96875l1.59375 0l0 5.84375q0 2.109375 1.578125 2.109375q0.296875 0 0.5625 -0.078125q0.28125 -0.09375 0.578125 -0.3125q0.3125 -0.21875 0.65625 -0.578125q0.359375 -0.359375 0.796875 -0.921875l0 -6.0625l1.59375 0l0 9.140625zm10.632263 -5.0625q0 0.34375 -0.015625 0.578125q0 0.21875 -0.03125 0.421875l-6.421875 0q0 1.40625 0.78125 2.15625q0.796875 0.75 2.265625 0.75q0.40625 0 0.796875 -0.03125q0.40625 -0.03125 0.78125 -0.078125q0.375 -0.0625 0.71875 -0.125q0.34375 -0.078125 0.625 -0.15625l0 1.296875q-0.640625 0.1875 -1.46875 0.296875q-0.8125 0.109375 -1.6875 0.109375q-1.171875 0 -2.015625 -0.3125q-0.84375 -0.3125 -1.390625 -0.921875q-0.546875 -0.609375 -0.8125 -1.484375q-0.25 -0.875 -0.25 -2.0q0 -0.953125 0.28125 -1.8125q0.28125 -0.859375 0.8125 -1.515625q0.53125 -0.65625 1.296875 -1.03125q0.78125 -0.390625 1.765625 -0.390625q0.953125 0 1.6875 0.3125q0.75 0.296875 1.25 0.84375q0.5 0.546875 0.765625 1.34375q0.265625 0.78125 0.265625 1.75zm-1.65625 -0.21875q0.03125 -0.609375 -0.125 -1.109375q-0.140625 -0.515625 -0.453125 -0.875q-0.296875 -0.375 -0.75 -0.578125q-0.453125 -0.203125 -1.0625 -0.203125q-0.515625 0 -0.953125 0.203125q-0.421875 0.203125 -0.734375 0.5625q-0.296875 0.359375 -0.5 0.875q-0.1875 0.515625 -0.234375 1.125l4.8125 0z" fill-rule="nonzero"/><path fill="#000000" fill-opacity="0.0" d="m445.42783 146.07086l132.91336 0" fill-rule="evenodd"/><path stroke="#000000" stroke-width="1.0" stroke-linejoin="round" stroke-linecap="butt" d="m445.42783 146.07086l126.91336 0" fill-rule="evenodd"/><path fill="#000000" stroke="#000000" stroke-width="1.0" stroke-linecap="butt" d="m572.3412 147.7226l4.538147 -1.6517334l-4.538147 -1.6517334z" fill-rule="evenodd"/><path fill="#000000" d="m893.79266 146.80052l0 0c0 -8.062485 6.5359497 -14.598419 14.598389 -14.598419l0 0c3.8717651 0 7.584961 1.5380402 10.322693 4.275772c2.737732 2.7377472 4.275757 6.4509125 4.275757 10.322647l0 0c0 8.062485 -6.5359497 14.598434 -14.59845 14.598434l0 0c-8.062439 0 -14.598389 -6.5359497 -14.598389 -14.598434z" fill-rule="evenodd"/><path stroke="#000000" stroke-width="1.0" stroke-linejoin="round" stroke-linecap="butt" d="m893.79266 146.80052l0 0c0 -8.062485 6.5359497 -14.598419 14.598389 -14.598419l0 0c3.8717651 0 7.584961 1.5380402 10.322693 4.275772c2.737732 2.7377472 4.275757 6.4509125 4.275757 10.322647l0 0c0 8.062485 -6.5359497 14.598434 -14.59845 14.598434l0 0c-8.062439 0 -14.598389 -6.5359497 -14.598389 -14.598434z" fill-rule="evenodd"/><path fill="#000000" fill-opacity="0.0" d="m741.895 146.07086l151.90552 0.724411" fill-rule="evenodd"/><path stroke="#000000" stroke-width="1.0" stroke-linejoin="round" stroke-linecap="butt" d="m741.895 146.07086l145.90558 0.6958008" fill-rule="evenodd"/><path fill="#000000" stroke="#000000" stroke-width="1.0" stroke-linecap="butt" d="m887.7927 148.41838l4.5458984 -1.6300812l-4.5301514 -1.6733551z" fill-rule="evenodd"/><path fill="#000000" fill-opacity="0.0" d="m435.20734 108.83465l151.90552 0l0 29.196846l-151.90552 0z" fill-rule="evenodd"/><path fill="#000000" d="m457.25696 139.48901l-4.5 0l0 -16.921867l4.5 0l0 1.265625l-2.984375 0l0 14.374992l2.984375 0l0 1.28125zm12.319794 -3.734375l-2.109375 0l-2.46875 -3.484375l-2.4375 3.484375l-2.046875 0l3.546875 -4.59375l-3.390625 -4.5468674l2.03125 0l2.40625 3.5156174l2.359375 -3.5156174l1.96875 0l-3.4375 4.5781174l3.578125 4.5625zm10.007294 -5.953125q0 1.375 -0.28125 2.5q-0.265625 1.125 -0.828125 1.9375q-0.546875 0.796875 -1.375 1.234375q-0.8125 0.4375 -1.9375 0.4375q-0.953125 0 -1.734375 -0.359375q-0.78125 -0.359375 -1.34375 -1.09375q-0.546875 -0.75 -0.859375 -1.90625q-0.296875 -1.15625 -0.296875 -2.75q0 -1.359375 0.28125 -2.4843674q0.28125 -1.140625 0.828125 -1.9375q0.546875 -0.8125 1.375 -1.25q0.84375 -0.4375 1.9375 -0.4375q0.953125 0 1.734375 0.359375q0.796875 0.359375 1.34375 1.109375q0.5625 0.75 0.859375 1.90625q0.296875 1.1562424 0.296875 2.7343674zm-1.59375 0.0625q0 -0.3125 -0.03125 -0.609375q-0.015625 -0.3125 -0.046875 -0.609375l-5.046875 3.75q0.140625 0.46875 0.34375 0.875q0.21875 0.390625 0.515625 0.6875q0.296875 0.28125 0.671875 0.453125q0.375 0.15625 0.859375 0.15625q0.625 0 1.125 -0.296875q0.515625 -0.3125 0.859375 -0.90625q0.359375 -0.59375 0.546875 -1.46875q0.203125 -0.875 0.203125 -2.03125zm-5.453125 -0.109375q0 0.28125 0 0.5625q0 0.28125 0.03125 0.546875l5.046875 -3.7343674q-0.140625 -0.453125 -0.359375 -0.828125q-0.203125 -0.390625 -0.5 -0.671875q-0.28125 -0.28125 -0.65625 -0.4375q-0.375 -0.15625 -0.84375 -0.15625q-0.609375 0 -1.125 0.3125q-0.5 0.296875 -0.859375 0.890625q-0.359375 0.59375 -0.546875 1.484375q-0.1875 0.8749924 -0.1875 2.0312424zm10.022919 7.875q0.453125 0.015625 0.890625 -0.09375q0.4375 -0.09375 0.765625 -0.296875q0.34375 -0.1875 0.546875 -0.484375q0.203125 -0.296875 0.203125 -0.65625q0 -0.390625 -0.140625 -0.625q-0.125 -0.234375 -0.296875 -0.4375q-0.15625 -0.203125 -0.296875 -0.421875q-0.125 -0.234375 -0.125 -0.625q0 -0.1875 0.0625 -0.390625q0.078125 -0.21875 0.21875 -0.390625q0.15625 -0.171875 0.390625 -0.28125q0.234375 -0.109375 0.5625 -0.109375q0.3125 0 0.609375 0.140625q0.296875 0.125 0.515625 0.40625q0.21875 0.265625 0.34375 0.6875q0.140625 0.40625 0.140625 0.953125q0 0.765625 -0.28125 1.453125q-0.265625 0.703125 -0.828125 1.234375q-0.546875 0.546875 -1.375 0.859375q-0.8125 0.3125 -1.90625 0.3125l0 -1.234375zm28.045837 -1.875l-2.109375 0l-2.46875 -3.484375l-2.4375 3.484375l-2.046875 0l3.546875 -4.59375l-3.390625 -4.5468674l2.03125 0l2.40625 3.5156174l2.359375 -3.5156174l1.96875 0l-3.4375 4.5781174l3.578125 4.5625zm9.632294 0l-7.46875 0l0 -1.46875l3.0625 0l0 -8.703117l-2.859375 1.546875l-0.578125 -1.34375l3.78125 -1.984375l1.40625 0l0 10.484367l2.65625 0l0 1.46875zm3.3510742 1.875q0.453125 0.015625 0.890625 -0.09375q0.4375 -0.09375 0.765625 -0.296875q0.34375 -0.1875 0.546875 -0.484375q0.203125 -0.296875 0.203125 -0.65625q0 -0.390625 -0.140625 -0.625q-0.125 -0.234375 -0.296875 -0.4375q-0.15625 -0.203125 -0.296875 -0.421875q-0.125 -0.234375 -0.125 -0.625q0 -0.1875 0.0625 -0.390625q0.078125 -0.21875 0.21875 -0.390625q0.15625 -0.171875 0.390625 -0.28125q0.234375 -0.109375 0.5625 -0.109375q0.3125 0 0.609375 0.140625q0.296875 0.125 0.515625 0.40625q0.21875 0.265625 0.34375 0.6875q0.140625 0.40625 0.140625 0.953125q0 0.765625 -0.28125 1.453125q-0.265625 0.703125 -0.828125 1.234375q-0.546875 0.546875 -1.375 0.859375q-0.8125 0.3125 -1.90625 0.3125l0 -1.234375zm28.045837 -1.875l-2.109375 0l-2.46875 -3.484375l-2.4375 3.484375l-2.046875 0l3.546875 -4.59375l-3.390625 -4.5468674l2.03125 0l2.40625 3.5156174l2.359375 -3.5156174l1.96875 0l-3.4375 4.5781174l3.578125 4.5625zm9.741638 0l-7.84375 0l0 -1.421875l3.078125 -3.0625q0.75 -0.75 1.21875 -1.296875q0.484375 -0.546875 0.75 -0.984375q0.265625 -0.453125 0.34375 -0.859375q0.09375 -0.40624237 0.09375 -0.8593674q0 -0.4375 -0.125 -0.828125q-0.109375 -0.40625 -0.359375 -0.703125q-0.234375 -0.3125 -0.640625 -0.484375q-0.390625 -0.171875 -0.9375 -0.171875q-0.75 0 -1.375 0.34375q-0.609375 0.328125 -1.125 0.875l-0.875 -1.046875q0.671875 -0.71875 1.546875 -1.140625q0.875 -0.421875 2.046875 -0.421875q0.796875 0 1.4375 0.234375q0.65625 0.234375 1.125 0.6875q0.484375 0.4375 0.734375 1.09375q0.265625 0.640625 0.265625 1.453125q0 0.671875 -0.1875 1.2656174q-0.171875 0.578125 -0.546875 1.15625q-0.375 0.578125 -0.9375 1.203125q-0.546875 0.609375 -1.3125 1.359375l-2.171875 2.09375l5.796875 0l0 1.515625zm8.179199 3.734375l-4.484375 0l0 -1.28125l2.953125 0l0 -14.374992l-2.953125 0l0 -1.265625l4.484375 0l0 16.921867z" fill-rule="nonzero"/><path fill="#000000" fill-opacity="0.0" d="m760.8845 68.83465l132.91339 0l0 29.196846l-132.91339 0z" fill-rule="evenodd"/><path fill="#000000" d="m804.20996 99.48902l-4.5 0l0 -16.921875l4.5 0l0 1.265625l-2.984375 0l0 14.375l2.984375 0l0 1.28125zm9.726013 0l-4.484375 0l0 -1.28125l2.953125 0l0 -14.375l-2.953125 0l0 -1.265625l4.484375 0l0 16.921875zm22.827087 -8.375q0 1.0625 -0.3125 1.953125q-0.296875 0.890625 -0.859375 1.53125q-0.5625 0.625 -1.375 0.96875q-0.8125 0.34375 -1.84375 0.34375q-0.984375 0 -1.765625 -0.296875q-0.765625 -0.3125 -1.3125 -0.890625q-0.546875 -0.59375 -0.828125 -1.46875q-0.28125 -0.875 -0.28125 -2.015625q0 -1.0625 0.296875 -1.9375q0.296875 -0.890625 0.859375 -1.515625q0.5625 -0.640625 1.375 -0.984375q0.8125 -0.359375 1.84375 -0.359375q0.984375 0 1.765625 0.3125q0.78125 0.296875 1.3125 0.890625q0.546875 0.578125 0.828125 1.453125q0.296875 0.875 0.296875 2.015625zm-1.625 0.0625q0 -0.84375 -0.1875 -1.46875q-0.1875 -0.640625 -0.53125 -1.0625q-0.34375 -0.421875 -0.84375 -0.640625q-0.5 -0.21875 -1.109375 -0.21875q-0.703125 0 -1.21875 0.28125q-0.5 0.28125 -0.828125 0.75q-0.3125 0.453125 -0.46875 1.078125q-0.15625 0.609375 -0.15625 1.28125q0 0.859375 0.1875 1.5q0.1875 0.625 0.53125 1.046875q0.359375 0.421875 0.84375 0.640625q0.5 0.21875 1.109375 0.21875q0.71875 0 1.21875 -0.28125q0.5 -0.28125 0.828125 -0.734375q0.328125 -0.46875 0.46875 -1.078125q0.15625 -0.625 0.15625 -1.3125zm4.288574 -4.5625l1.453125 0l0.046875 1.6875q0.8125 -0.984375 1.59375 -1.421875q0.796875 -0.4375 1.59375 -0.4375q1.421875 0 2.15625 0.921875q0.734375 0.921875 0.671875 2.734375l-1.59375 0q0.015625 -1.203125 -0.359375 -1.734375q-0.375 -0.546875 -1.109375 -0.546875q-0.3125 0 -0.640625 0.109375q-0.328125 0.109375 -0.671875 0.359375q-0.328125 0.25 -0.71875 0.640625q-0.375 0.390625 -0.8125 0.953125l0 5.875l-1.609375 0l0 -9.140625zm10.601013 11.015625q0.453125 0.015625 0.890625 -0.09375q0.4375 -0.09375 0.765625 -0.296875q0.34375 -0.1875 0.546875 -0.484375q0.203125 -0.296875 0.203125 -0.65625q0 -0.390625 -0.140625 -0.625q-0.125 -0.234375 -0.296875 -0.4375q-0.15625 -0.203125 -0.296875 -0.421875q-0.125 -0.234375 -0.125 -0.625q0 -0.1875 0.0625 -0.390625q0.078125 -0.21875 0.21875 -0.390625q0.15625 -0.171875 0.390625 -0.28125q0.234375 -0.109375 0.5625 -0.109375q0.3125 0 0.609375 0.140625q0.296875 0.125 0.515625 0.40625q0.21875 0.265625 0.34375 0.6875q0.140625 0.40625 0.140625 0.953125q0 0.765625 -0.28125 1.453125q-0.265625 0.703125 -0.828125 1.234375q-0.546875 0.546875 -1.375 0.859375q-0.8125 0.3125 -1.90625 0.3125l0 -1.234375z" fill-rule="nonzero"/><path fill="#000000" d="m793.95264 121.48902l-4.5 0l0 -16.921875l4.5 0l0 1.265625l-2.984375 0l0 14.375l2.984375 0l0 1.28125zm12.319824 -3.734375l-2.109375 0l-2.46875 -3.484375l-2.4375 3.484375l-2.046875 0l3.546875 -4.59375l-3.390625 -4.546875l2.03125 0l2.40625 3.515625l2.359375 -3.515625l1.96875 0l-3.4375 4.578125l3.578125 4.5625zm10.007263 -5.953125q0 1.375 -0.28125 2.5q-0.265625 1.125 -0.828125 1.9375q-0.546875 0.796875 -1.375 1.234375q-0.8125 0.4375 -1.9375 0.4375q-0.953125 0 -1.734375 -0.359375q-0.78125 -0.359375 -1.34375 -1.09375q-0.546875 -0.75 -0.859375 -1.90625q-0.296875 -1.15625 -0.296875 -2.75q0 -1.359375 0.28125 -2.484375q0.28125 -1.140625 0.828125 -1.9375q0.546875 -0.8125 1.375 -1.25q0.84375 -0.4375 1.9375 -0.4375q0.953125 0 1.734375 0.359375q0.796875 0.359375 1.34375 1.109375q0.5625 0.75 0.859375 1.90625q0.296875 1.15625 0.296875 2.734375zm-1.59375 0.0625q0 -0.3125 -0.03125 -0.609375q-0.015625 -0.3125 -0.046875 -0.609375l-5.046875 3.75q0.140625 0.46875 0.34375 0.875q0.21875 0.390625 0.515625 0.6875q0.296875 0.28125 0.671875 0.453125q0.375 0.15625 0.859375 0.15625q0.625 0 1.125 -0.296875q0.515625 -0.3125 0.859375 -0.90625q0.359375 -0.59375 0.546875 -1.46875q0.203125 -0.875 0.203125 -2.03125zm-5.453125 -0.109375q0 0.28125 0 0.5625q0 0.28125 0.03125 0.546875l5.046875 -3.734375q-0.140625 -0.453125 -0.359375 -0.828125q-0.203125 -0.390625 -0.5 -0.671875q-0.28125 -0.28125 -0.65625 -0.4375q-0.375 -0.15625 -0.84375 -0.15625q-0.609375 0 -1.125 0.3125q-0.5 0.296875 -0.859375 0.890625q-0.359375 0.59375 -0.546875 1.484375q-0.1875 0.875 -0.1875 2.03125zm14.960449 9.734375l-4.484375 0l0 -1.28125l2.953125 0l0 -14.375l-2.953125 0l0 -1.265625l4.484375 0l0 16.921875zm22.827087 -8.375q0 1.0625 -0.3125 1.953125q-0.296875 0.890625 -0.859375 1.53125q-0.5625 0.625 -1.375 0.96875q-0.8125 0.34375 -1.84375 0.34375q-0.984375 0 -1.765625 -0.296875q-0.765625 -0.3125 -1.3125 -0.890625q-0.546875 -0.59375 -0.828125 -1.46875q-0.28125 -0.875 -0.28125 -2.015625q0 -1.0625 0.296875 -1.9375q0.296875 -0.890625 0.859375 -1.515625q0.5625 -0.640625 1.375 -0.984375q0.8125 -0.359375 1.84375 -0.359375q0.984375 0 1.765625 0.3125q0.78125 0.296875 1.3125 0.890625q0.546875 0.578125 0.828125 1.453125q0.296875 0.875 0.296875 2.015625zm-1.625 0.0625q0 -0.84375 -0.1875 -1.46875q-0.1875 -0.640625 -0.53125 -1.0625q-0.34375 -0.421875 -0.84375 -0.640625q-0.5 -0.21875 -1.109375 -0.21875q-0.703125 0 -1.21875 0.28125q-0.5 0.28125 -0.828125 0.75q-0.3125 0.453125 -0.46875 1.078125q-0.15625 0.609375 -0.15625 1.28125q0 0.859375 0.1875 1.5q0.1875 0.625 0.53125 1.046875q0.359375 0.421875 0.84375 0.640625q0.5 0.21875 1.109375 0.21875q0.71875 0 1.21875 -0.28125q0.5 -0.28125 0.828125 -0.734375q0.328125 -0.46875 0.46875 -1.078125q0.15625 -0.625 0.15625 -1.3125zm4.288513 -4.5625l1.453125 0l0.046875 1.6875q0.8125 -0.984375 1.59375 -1.421875q0.796875 -0.4375 1.59375 -0.4375q1.421875 0 2.15625 0.921875q0.734375 0.921875 0.671875 2.734375l-1.59375 0q0.015625 -1.203125 -0.359375 -1.734375q-0.375 -0.546875 -1.109375 -0.546875q-0.3125 0 -0.640625 0.109375q-0.328125 0.109375 -0.671875 0.359375q-0.328125 0.25 -0.71875 0.640625q-0.375 0.390625 -0.8125 0.953125l0 5.875l-1.609375 0l0 -9.140625zm10.601074 11.015625q0.453125 0.015625 0.890625 -0.09375q0.4375 -0.09375 0.765625 -0.296875q0.34375 -0.1875 0.546875 -0.484375q0.203125 -0.296875 0.203125 -0.65625q0 -0.390625 -0.140625 -0.625q-0.125 -0.234375 -0.296875 -0.4375q-0.15625 -0.203125 -0.296875 -0.421875q-0.125 -0.234375 -0.125 -0.625q0 -0.1875 0.0625 -0.390625q0.078125 -0.21875 0.21875 -0.390625q0.15625 -0.171875 0.390625 -0.28125q0.234375 -0.109375 0.5625 -0.109375q0.3125 0 0.609375 0.140625q0.296875 0.125 0.515625 0.40625q0.21875 0.265625 0.34375 0.6875q0.140625 0.40625 0.140625 0.953125q0 0.765625 -0.28125 1.453125q-0.265625 0.703125 -0.828125 1.234375q-0.546875 0.546875 -1.375 0.859375q-0.8125 0.3125 -1.90625 0.3125l0 -1.234375z" fill-rule="nonzero"/><path fill="#000000" d="m778.5667 143.48901l-4.5 0l0 -16.921867l4.5 0l0 1.265625l-2.984375 0l0 14.374992l2.984375 0l0 1.28125zm12.319824 -3.734375l-2.109375 0l-2.46875 -3.484375l-2.4375 3.484375l-2.046875 0l3.546875 -4.59375l-3.390625 -4.546875l2.03125 0l2.40625 3.515625l2.359375 -3.515625l1.96875 0l-3.4375 4.578125l3.578125 4.5625zm10.007263 -5.953125q0 1.375 -0.28125 2.5q-0.265625 1.125 -0.828125 1.9375q-0.546875 0.796875 -1.375 1.234375q-0.8125 0.4375 -1.9375 0.4375q-0.953125 0 -1.734375 -0.359375q-0.78125 -0.359375 -1.34375 -1.09375q-0.546875 -0.75 -0.859375 -1.90625q-0.296875 -1.15625 -0.296875 -2.75q0 -1.359375 0.28125 -2.484375q0.28125 -1.140625 0.828125 -1.9375q0.546875 -0.8125 1.375 -1.25q0.84375 -0.43749237 1.9375 -0.43749237q0.953125 0 1.734375 0.35936737q0.796875 0.359375 1.34375 1.109375q0.5625 0.75 0.859375 1.90625q0.296875 1.15625 0.296875 2.734375zm-1.59375 0.0625q0 -0.3125 -0.03125 -0.609375q-0.015625 -0.3125 -0.046875 -0.609375l-5.046875 3.75q0.140625 0.46875 0.34375 0.875q0.21875 0.390625 0.515625 0.6875q0.296875 0.28125 0.671875 0.453125q0.375 0.15625 0.859375 0.15625q0.625 0 1.125 -0.296875q0.515625 -0.3125 0.859375 -0.90625q0.359375 -0.59375 0.546875 -1.46875q0.203125 -0.875 0.203125 -2.03125zm-5.453125 -0.109375q0 0.28125 0 0.5625q0 0.28125 0.03125 0.546875l5.046875 -3.734375q-0.140625 -0.453125 -0.359375 -0.828125q-0.203125 -0.390625 -0.5 -0.671875q-0.28125 -0.28125 -0.65625 -0.4375q-0.375 -0.15625 -0.84375 -0.15625q-0.609375 0 -1.125 0.3125q-0.5 0.296875 -0.859375 0.890625q-0.359375 0.59375 -0.546875 1.484375q-0.1875 0.875 -0.1875 2.03125zm10.022949 7.875q0.453125 0.015625 0.890625 -0.09375q0.4375 -0.09375 0.765625 -0.296875q0.34375 -0.1875 0.546875 -0.484375q0.203125 -0.296875 0.203125 -0.65625q0 -0.390625 -0.140625 -0.625q-0.125 -0.234375 -0.296875 -0.4375q-0.15625 -0.203125 -0.296875 -0.421875q-0.125 -0.234375 -0.125 -0.625q0 -0.1875 0.0625 -0.390625q0.078125 -0.21875 0.21875 -0.390625q0.15625 -0.171875 0.390625 -0.28125q0.234375 -0.109375 0.5625 -0.109375q0.3125 0 0.609375 0.140625q0.296875 0.125 0.515625 0.40625q0.21875 0.265625 0.34375 0.6875q0.140625 0.40625 0.140625 0.953125q0 0.765625 -0.28125 1.453125q-0.265625 0.703125 -0.828125 1.234375q-0.546875 0.546875 -1.375 0.859375q-0.8125 0.3125 -1.90625 0.3125l0 -1.234375zm28.045837 -1.875l-2.109375 0l-2.46875 -3.484375l-2.4375 3.484375l-2.046875 0l3.546875 -4.59375l-3.390625 -4.546875l2.03125 0l2.40625 3.515625l2.359375 -3.515625l1.96875 0l-3.4375 4.578125l3.578125 4.5625zm9.632263 0l-7.46875 0l0 -1.46875l3.0625 0l0 -8.703125l-2.859375 1.546875l-0.578125 -1.34375l3.78125 -1.9843674l1.40625 0l0 10.484367l2.65625 0l0 1.46875zm8.288574 3.734375l-4.484375 0l0 -1.28125l2.953125 0l0 -14.374992l-2.953125 0l0 -1.265625l4.484375 0l0 16.921867zm22.827087 -8.375q0 1.0625 -0.3125 1.953125q-0.296875 0.890625 -0.859375 1.53125q-0.5625 0.625 -1.375 0.96875q-0.8125 0.34375 -1.84375 0.34375q-0.984375 0 -1.765625 -0.296875q-0.765625 -0.3125 -1.3125 -0.890625q-0.546875 -0.59375 -0.828125 -1.46875q-0.28125 -0.875 -0.28125 -2.015625q0 -1.0625 0.296875 -1.9375q0.296875 -0.890625 0.859375 -1.515625q0.5625 -0.640625 1.375 -0.984375q0.8125 -0.359375 1.84375 -0.359375q0.984375 0 1.765625 0.3125q0.78125 0.296875 1.3125 0.890625q0.546875 0.578125 0.828125 1.453125q0.296875 0.875 0.296875 2.015625zm-1.625 0.0625q0 -0.84375 -0.1875 -1.46875q-0.1875 -0.640625 -0.53125 -1.0625q-0.34375 -0.421875 -0.84375 -0.640625q-0.5 -0.21875 -1.109375 -0.21875q-0.703125 0 -1.21875 0.28125q-0.5 0.28125 -0.828125 0.75q-0.3125 0.453125 -0.46875 1.078125q-0.15625 0.609375 -0.15625 1.28125q0 0.859375 0.1875 1.5q0.1875 0.625 0.53125 1.046875q0.359375 0.421875 0.84375 0.640625q0.5 0.21875 1.109375 0.21875q0.71875 0 1.21875 -0.28125q0.5 -0.28125 0.828125 -0.734375q0.328125 -0.46875 0.46875 -1.078125q0.15625 -0.625 0.15625 -1.3125zm4.288513 -4.5625l1.453125 0l0.046875 1.6875q0.8125 -0.984375 1.59375 -1.421875q0.796875 -0.4375 1.59375 -0.4375q1.421875 0 2.15625 0.921875q0.734375 0.921875 0.671875 2.734375l-1.59375 0q0.015625 -1.203125 -0.359375 -1.734375q-0.375 -0.546875 -1.109375 -0.546875q-0.3125 0 -0.640625 0.109375q-0.328125 0.109375 -0.671875 0.359375q-0.328125 0.25 -0.71875 0.640625q-0.375 0.390625 -0.8125 0.953125l0 5.875l-1.609375 0l0 -9.140625z" fill-rule="nonzero"/><path fill="#000000" d="m817.01776 158.87964q0.296875 0 0.578125 0.125q0.28125 0.125 0.484375 0.328125q0.203125 0.203125 0.3125 0.484375q0.125 0.28125 0.125 0.59375q0 0.3125 -0.125 0.59375q-0.109375 0.265625 -0.3125 0.46875q-0.203125 0.203125 -0.484375 0.3125q-0.28125 0.125 -0.578125 0.125q-0.328125 0 -0.609375 -0.125q-0.265625 -0.109375 -0.46875 -0.3125q-0.203125 -0.203125 -0.328125 -0.46875q-0.109375 -0.28125 -0.109375 -0.59375q0 -0.3125 0.109375 -0.59375q0.125 -0.28125 0.328125 -0.484375q0.203125 -0.203125 0.46875 -0.328125q0.28125 -0.125 0.609375 -0.125zm10.257324 0q0.296875 0 0.578125 0.125q0.28125 0.125 0.484375 0.328125q0.203125 0.203125 0.3125 0.484375q0.125 0.28125 0.125 0.59375q0 0.3125 -0.125 0.59375q-0.109375 0.265625 -0.3125 0.46875q-0.203125 0.203125 -0.484375 0.3125q-0.28125 0.125 -0.578125 0.125q-0.328125 0 -0.609375 -0.125q-0.265625 -0.109375 -0.46875 -0.3125q-0.203125 -0.203125 -0.328125 -0.46875q-0.109375 -0.28125 -0.109375 -0.59375q0 -0.3125 0.109375 -0.59375q0.125 -0.28125 0.328125 -0.484375q0.203125 -0.203125 0.46875 -0.328125q0.28125 -0.125 0.609375 -0.125zm10.257263 0q0.296875 0 0.578125 0.125q0.28125 0.125 0.484375 0.328125q0.203125 0.203125 0.3125 0.484375q0.125 0.28125 0.125 0.59375q0 0.3125 -0.125 0.59375q-0.109375 0.265625 -0.3125 0.46875q-0.203125 0.203125 -0.484375 0.3125q-0.28125 0.125 -0.578125 0.125q-0.328125 0 -0.609375 -0.125q-0.265625 -0.109375 -0.46875 -0.3125q-0.203125 -0.203125 -0.328125 -0.46875q-0.109375 -0.28125 -0.109375 -0.59375q0 -0.3125 0.109375 -0.59375q0.125 -0.28125 0.328125 -0.484375q0.203125 -0.203125 0.46875 -0.328125q0.28125 -0.125 0.609375 -0.125z" fill-rule="nonzero"/><path fill="#000000" fill-opacity="0.0" d="m231.44882 50.446194l44.566925 0l0 29.19685l-44.566925 0z" fill-rule="evenodd"/><path fill="#000000" d="m253.17812 77.366196l-2.109375 0l-2.46875 -3.484375l-2.4375 3.484375l-2.046875 0l3.546875 -4.59375l-3.390625 -4.546875l2.03125 0l2.40625 3.515625l2.359375 -3.515625l1.96875 0l-3.4375 4.578125l3.578125 4.5625zm10.007278 -5.953125q0 1.375 -0.28125 2.5q-0.265625 1.125 -0.828125 1.9375q-0.546875 0.796875 -1.375 1.234375q-0.8125 0.4375 -1.9375 0.4375q-0.953125 0 -1.734375 -0.359375q-0.78125 -0.359375 -1.3437347 -1.09375q-0.546875 -0.75 -0.859375 -1.90625q-0.296875 -1.15625 -0.296875 -2.75q0 -1.359375 0.28125 -2.484375q0.28125 -1.140625 0.828125 -1.9375q0.54685974 -0.8125 1.3749847 -1.25q0.84375 -0.4375 1.9375 -0.4375q0.953125 0 1.734375 0.359375q0.796875 0.359375 1.34375 1.109375q0.5625 0.75 0.859375 1.90625q0.296875 1.15625 0.296875 2.734375zm-1.59375 0.0625q0 -0.3125 -0.03125 -0.609375q-0.015625 -0.3125 -0.046875 -0.609375l-5.046875 3.75q0.140625 0.46875 0.34375 0.875q0.21875 0.390625 0.515625 0.6875q0.296875 0.28125 0.671875 0.453125q0.375 0.15625 0.859375 0.15625q0.625 0 1.125 -0.296875q0.515625 -0.3125 0.859375 -0.90625q0.359375 -0.59375 0.546875 -1.46875q0.203125 -0.875 0.203125 -2.03125zm-5.453125 -0.109375q0 0.28125 0 0.5625q0 0.28125 0.03125 0.546875l5.046875 -3.734375q-0.140625 -0.453125 -0.359375 -0.828125q-0.203125 -0.390625 -0.5 -0.671875q-0.28125 -0.28125 -0.65625 -0.4375q-0.375 -0.15625 -0.84375 -0.15625q-0.609375 0 -1.125 0.3125q-0.5 0.296875 -0.859375 0.890625q-0.359375 0.59375 -0.546875 1.484375q-0.1875 0.875 -0.1875 2.03125z" fill-rule="nonzero"/><path fill="#000000" fill-opacity="0.0" d="m231.44882 106.4462l44.566925 0l0 29.196854l-44.566925 0z" fill-rule="evenodd"/><path fill="#000000" d="m253.17812 133.3662l-2.109375 0l-2.46875 -3.484375l-2.4375 3.484375l-2.046875 0l3.546875 -4.59375l-3.390625 -4.546875l2.03125 0l2.40625 3.515625l2.359375 -3.515625l1.96875 0l-3.4375 4.578125l3.578125 4.5625zm9.632278 0l-7.4687347 0l0 -1.46875l3.0624847 0l0 -8.703125l-2.8593597 1.546875l-0.578125 -1.34375l3.7812347 -1.984375l1.40625 0l0 10.484375l2.65625 0l0 1.46875z" fill-rule="nonzero"/><path fill="#000000" fill-opacity="0.0" d="m153.79002 240.36745l0 0c0 -15.724884 12.747543 -28.472427 28.472443 -28.472427l0 0c7.551361 0 14.793442 2.9997559 20.133057 8.339386c5.339615 5.339615 8.339386 12.58168 8.339386 20.133041l0 0c0 15.724899 -12.747543 28.472458 -28.472443 28.472458l0 0c-15.724899 0 -28.472443 -12.747559 -28.472443 -28.472458z" fill-rule="evenodd"/><path stroke="#000000" stroke-width="2.0" stroke-linejoin="round" stroke-linecap="butt" stroke-dasharray="8.0,6.0" d="m153.79002 240.36745l0 0c0 -15.724884 12.747543 -28.472427 28.472443 -28.472427l0 0c7.551361 0 14.793442 2.9997559 20.133057 8.339386c5.339615 5.339615 8.339386 12.58168 8.339386 20.133041l0 0c0 15.724899 -12.747543 28.472458 -28.472443 28.472458l0 0c-15.724899 0 -28.472443 -12.747559 -28.472443 -28.472458z" fill-rule="evenodd"/><path fill="#ffffff" d="m177.13382 229.36746l10.257294 0l0 22.399994l-10.257294 0l0 -22.399994z" fill-rule="nonzero"/><path fill="#000000" fill-opacity="0.0" d="m177.13382 233.43192l10.257294 0l0 21.844574l-10.257294 0l0 -21.844574z" fill-rule="nonzero"/><path fill="#222222" d="m187.3057 247.28746l-1.765625 0l-0.84375 -2.59375l-4.953125 0l-0.828125 2.59375l-1.6875 0l3.953125 -11.90625l2.21875 0l3.90625 11.90625zm-3.0625 -4.046875l-2.015625 -6.359375l-2.015625 6.359375l4.03125 0z" fill-rule="nonzero"/><path fill="#000000" fill-opacity="0.0" d="m210.73491 240.36745l75.52757 -94.29921" fill-rule="evenodd"/><path stroke="#000000" stroke-width="1.0" stroke-linejoin="round" stroke-linecap="butt" d="m210.73491 240.36745l71.77672 -89.616135" fill-rule="evenodd"/><path fill="#000000" stroke="#000000" stroke-width="1.0" stroke-linecap="butt" d="m283.8008 151.78387l1.54776 -4.5746l-4.126129 2.5094757z" fill-rule="evenodd"/><path fill="#000000" fill-opacity="0.0" d="m151.34383 146.92258l0 0c0 -15.724899 12.747559 -28.472443 28.472443 -28.472443l0 0c7.551361 0 14.793442 2.9997635 20.133057 8.339378c5.339615 5.3396225 8.339386 12.581703 8.339386 20.133064l0 0c0 15.724884 -12.747543 28.472443 -28.472443 28.472443l0 0c-15.724884 0 -28.472443 -12.747559 -28.472443 -28.472443z" fill-rule="evenodd"/><path stroke="#000000" stroke-width="2.0" stroke-linejoin="round" stroke-linecap="butt" d="m151.34383 146.92258l0 0c0 -15.724899 12.747559 -28.472443 28.472443 -28.472443l0 0c7.551361 0 14.793442 2.9997635 20.133057 8.339378c5.339615 5.3396225 8.339386 12.581703 8.339386 20.133064l0 0c0 15.724884 -12.747543 28.472443 -28.472443 28.472443l0 0c-15.724884 0 -28.472443 -12.747559 -28.472443 -28.472443z" fill-rule="evenodd"/><path fill="#000000" d="m184.8595 153.84258l-1.765625 0l-0.84375 -2.59375l-4.953125 0l-0.828125 2.59375l-1.6875 0l3.953125 -11.90625l2.21875 0l3.90625 11.90625zm-3.0625 -4.046875l-2.015625 -6.359375l-2.015625 6.359375l4.03125 0z" fill-rule="nonzero"/><path fill="#000000" fill-opacity="0.0" d="m94.91338 146.80052l56.44094 0.12599182" fill-rule="evenodd"/><path stroke="#000000" stroke-width="1.0" stroke-linejoin="round" stroke-linecap="butt" d="m94.91338 146.80052l50.440956 0.112594604" fill-rule="evenodd"/><path fill="#000000" stroke="#000000" stroke-width="1.0" stroke-linecap="butt" d="m145.35066 148.56485l4.5417633 -1.6416016l-4.5343933 -1.6618652z" fill-rule="evenodd"/><path fill="#000000" fill-opacity="0.0" d="m208.28871 146.92258l77.95274 -0.85040283" fill-rule="evenodd"/><path stroke="#000000" stroke-width="1.0" stroke-linejoin="round" stroke-linecap="butt" d="m208.28871 146.92258l71.95311 -0.7849426" fill-rule="evenodd"/><path fill="#000000" stroke="#000000" stroke-width="1.0" stroke-linecap="butt" d="m280.25986 147.78926l4.519806 -1.7011414l-4.555847 -1.6021271z" fill-rule="evenodd"/><path fill="#000000" fill-opacity="0.0" d="m231.44882 194.4462l44.566925 0l0 29.196854l-44.566925 0z" fill-rule="evenodd"/><path fill="#000000" d="m253.17812 221.3662l-2.109375 0l-2.46875 -3.484375l-2.4375 3.484375l-2.046875 0l3.546875 -4.59375l-3.390625 -4.546875l2.03125 0l2.40625 3.515625l2.359375 -3.515625l1.96875 0l-3.4375 4.578125l3.578125 4.5625zm9.741653 0l-7.8437347 0l0 -1.421875l3.0781097 -3.0625q0.75 -0.75 1.21875 -1.296875q0.484375 -0.546875 0.75 -0.984375q0.265625 -0.453125 0.34375 -0.859375q0.09375 -0.40625 0.09375 -0.859375q0 -0.4375 -0.125 -0.828125q-0.109375 -0.40625 -0.359375 -0.703125q-0.234375 -0.3125 -0.640625 -0.484375q-0.390625 -0.171875 -0.9375 -0.171875q-0.75 0 -1.375 0.34375q-0.609375 0.328125 -1.1249847 0.875l-0.875 -1.046875q0.671875 -0.71875 1.5468597 -1.140625q0.875 -0.421875 2.046875 -0.421875q0.796875 0 1.4375 0.234375q0.65625 0.234375 1.125 0.6875q0.484375 0.4375 0.734375 1.09375q0.265625 0.640625 0.265625 1.453125q0 0.671875 -0.1875 1.265625q-0.171875 0.578125 -0.546875 1.15625q-0.375 0.578125 -0.9375 1.203125q-0.546875 0.609375 -1.3125 1.359375l-2.171875 2.09375l5.796875 0l0 1.515625z" fill-rule="nonzero"/><path fill="#000000" fill-opacity="0.0" d="m86.10236 102.16535l83.84252 0l0 18.236221l-83.84252 0z" fill-rule="evenodd"/><path fill="#000000" d="m95.68049 126.194725l1.625 -0.25q0.125 0.96875 0.75 1.5q0.625 0.515625 1.75 0.515625q1.125 0 1.671875 -0.453125q0.546875 -0.46875 0.546875 -1.09375q0 -0.546875 -0.484375 -0.875q-0.328125 -0.21875 -1.671875 -0.546875q-1.8125 -0.46875 -2.515625 -0.796875q-0.6875 -0.328125 -1.046875 -0.90625q-0.359375 -0.59375 -0.359375 -1.3125q0 -0.640625 0.296875 -1.1875q0.296875 -0.5625 0.8125 -0.921875q0.375 -0.28125 1.03125 -0.46875q0.671875 -0.203125 1.421875 -0.203125q1.140625 0 2.0 0.328125q0.859375 0.328125 1.265625 0.890625q0.421875 0.5625 0.578125 1.5l-1.609375 0.21875q-0.109375 -0.75 -0.640625 -1.171875q-0.515625 -0.421875 -1.46875 -0.421875q-1.140625 0 -1.625 0.375q-0.46875 0.375 -0.46875 0.875q0 0.3125 0.1875 0.578125q0.203125 0.265625 0.640625 0.4375q0.234375 0.09375 1.4375 0.421875q1.75 0.453125 2.4375 0.75q0.6875 0.296875 1.078125 0.859375q0.390625 0.5625 0.390625 1.40625q0 0.828125 -0.484375 1.546875q-0.46875 0.7187576 -1.375 1.1250076q-0.90625 0.390625 -2.046875 0.390625q-1.875 0 -2.875 -0.78125q-0.984375 -0.7812576 -1.25 -2.3281326zm16.296875 -0.65625l1.609375 0.21875q-0.265625 1.65625 -1.359375 2.6093826q-1.078125 0.9375 -2.671875 0.9375q-1.984375 0 -3.1875 -1.296875q-1.203125 -1.2968826 -1.203125 -3.7187576q0 -1.578125 0.515625 -2.75q0.515625 -1.171875 1.578125 -1.75q1.0625 -0.59375 2.3125 -0.59375q1.578125 0 2.578125 0.796875q1.0 0.796875 1.28125 2.265625l-1.59375 0.234375q-0.234375 -0.96875 -0.8125 -1.453125q-0.578125 -0.5 -1.390625 -0.5q-1.234375 0 -2.015625 0.890625q-0.78125 0.890625 -0.78125 2.8125q0 1.953125 0.75 2.84375q0.75 0.875 1.953125 0.875q0.96875 0 1.609375 -0.59375q0.65625 -0.59375 0.828125 -1.828125zm9.328125 2.359375q-0.921875 0.7656326 -1.765625 1.0937576q-0.828125 0.3125 -1.796875 0.3125q-1.59375 0 -2.453125 -0.78125q-0.859375 -0.7812576 -0.859375 -1.9843826q0 -0.71875 0.328125 -1.296875q0.328125 -0.59375 0.84375 -0.9375q0.53125 -0.359375 1.1875 -0.546875q0.46875 -0.125 1.453125 -0.25q1.984375 -0.234375 2.921875 -0.5625q0.015625 -0.34375 0.015625 -0.421875q0 -1.0 -0.46875 -1.421875q-0.625 -0.546875 -1.875 -0.546875q-1.15625 0 -1.703125 0.40625q-0.546875 0.40625 -0.8125 1.421875l-1.609375 -0.21875q0.21875 -1.015625 0.71875 -1.640625q0.5 -0.640625 1.453125 -0.984375q0.953125 -0.34375 2.1875 -0.34375q1.25 0 2.015625 0.296875q0.78125 0.28125 1.140625 0.734375q0.375 0.4375 0.515625 1.109375q0.078125 0.421875 0.078125 1.515625l0 2.1875q0 2.28125 0.109375 2.890625q0.109375 0.5937576 0.40625 1.1562576l-1.703125 0q-0.265625 -0.515625 -0.328125 -1.1875076zm-0.140625 -3.671875q-0.890625 0.375 -2.671875 0.625q-1.015625 0.140625 -1.4375 0.328125q-0.421875 0.1875 -0.65625 0.53125q-0.21875 0.34375 -0.21875 0.78125q0 0.65625 0.5 1.09375q0.5 0.43750763 1.453125 0.43750763q0.9375 0 1.671875 -0.40625763q0.75 -0.421875 1.09375 -1.140625q0.265625 -0.5625 0.265625 -1.640625l0 -0.609375zm7.7819595 3.390625l0.234375 1.4531326q-0.6875 0.140625 -1.2343674 0.140625q-0.890625 0 -1.390625 -0.28125q-0.484375 -0.28125 -0.6875 -0.734375q-0.203125 -0.46875763 -0.203125 -1.9375076l0 -5.578125l-1.203125 0l0 -1.265625l1.203125 0l0 -2.390625l1.625 -0.984375l0 3.375l1.6562424 0l0 1.265625l-1.6562424 0l0 5.671875q0 0.6875 0.078125 0.890625q0.09375 0.203125 0.28125 0.328125q0.203125 0.109375 0.5781174 0.109375q0.265625 0 0.71875 -0.0625zm5.183304 0l0.234375 1.4531326q-0.6875 0.140625 -1.234375 0.140625q-0.890625 0 -1.390625 -0.28125q-0.484375 -0.28125 -0.6875 -0.734375q-0.203125 -0.46875763 -0.203125 -1.9375076l0 -5.578125l-1.203125 0l0 -1.265625l1.203125 0l0 -2.390625l1.625 -0.984375l0 3.375l1.65625 0l0 1.265625l-1.65625 0l0 5.671875q0 0.6875 0.078125 0.890625q0.09375 0.203125 0.28125 0.328125q0.203125 0.109375 0.578125 0.109375q0.265625 0 0.71875 -0.0625zm8.230179 -1.640625l1.6875 0.203125q-0.40625 1.484375 -1.484375 2.3125076q-1.078125 0.8125 -2.765625 0.8125q-2.125 0 -3.375 -1.296875q-1.234375 -1.3125076 -1.234375 -3.6718826q0 -2.453125 1.25 -3.796875q1.265625 -1.34375 3.265625 -1.34375q1.9375 0 3.15625 1.328125q1.234375 1.3125 1.234375 3.703125q0 0.15625 0 0.4375l-7.21875 0q0.09375 1.59375 0.90625 2.453125q0.8125 0.84375 2.015625 0.84375q0.90625 0 1.546875 -0.46875q0.640625 -0.484375 1.015625 -1.515625zm-5.390625 -2.65625l5.40625 0q-0.109375 -1.21875 -0.625 -1.828125q-0.78125 -0.953125 -2.03125 -0.953125q-1.125 0 -1.90625 0.765625q-0.765625 0.75 -0.84375 2.015625zm9.125717 5.7656326l0 -9.671883l1.46875 0l0 1.46875q0.5625 -1.03125 1.03125 -1.359375q0.484375 -0.328125 1.0625 -0.328125q0.828125 0 1.6875 0.53125l-0.5625 1.515625q-0.609375 -0.359375 -1.203125 -0.359375q-0.546875 0 -0.96875 0.328125q-0.421875 0.328125 -0.609375 0.890625q-0.28125 0.875 -0.28125 1.921875l0 5.0625076l-1.625 0z" fill-rule="nonzero"/></g></svg>